<?xml version="1.0" encoding="iso-8859-1"?>
<!-- Generator: Adobe Illustrator 19.0.0, SVG Export Plug-In . SVG Version: 6.00 Build 0)  -->
<svg version="1.1" id="Capa_1" xmlns="http://www.w3.org/2000/svg" xmlns:xlink="http://www.w3.org/1999/xlink" x="0px" y="0px"
	 viewBox="0 0 512 512" style="enable-background:new 0 0 512 512;" xml:space="preserve">
<path style="fill:#FFE18D;" d="M16.388,319.164c-2.971-4.73-3.255-11.356-4.782-16.767c-2.476-8.774-5.816-17.069-6.634-26.208
	c-1.669-18.638,1.786-37.78,6.766-55.744c4.185-15.097,9.502-33.695,18.687-46.431c10.307-14.29,23.356-22.167,39.354-29.122
	c45.532-19.794,89.981-43.266,134.591-65.206c40.108-19.725,83.069-32.362,125.791-45.127c15.435-4.611,37.449-12.604,53.626-9.272
	c-2.224,4.894-12.312,9.559-16.666,13.015c-6.016,4.774-9.03,9.266-13.725,15.006c-9.787,11.965-19.632,25.026-26.765,38.699
	c-6.861,13.151-13.836,26.082-18.401,40.243c-7.286,22.604-10.455,42.421-4.07,65.332c8.264,29.653,34.457,58.868,68.157,43.471
	c15.598-7.127,22.782-24.323,37.247-33.154c4.745-2.897,12.998-6.502,18.815-5.977c9.539,0.862,17.505,13.812,23.271,20.041
	c8.745,9.448,18.951,22.22,25.343,33.347c3.045,5.303,6.411,10.343,9.55,15.569c6.816,11.348,13.195,25.232,16.504,38.021
	c3.733,14.428,3.288,29.049-1.948,43.168c-5.72,15.425-13.005,22.372-27.37,29.932c-12.975,6.828-26.562,12.373-39.872,18.442
	c-17.197,7.842-33.746,17.163-51.326,24.177c-23.533,9.389-46.548,19.846-70.24,28.773c-17.706,6.671-35.189,15.947-53.46,20.945
	c-11.894,3.253-8.945-1.923-5.023-9.645c4.183-8.237,7.778-16.058,10.187-25.022c5.81-21.621,12.153-38.378,5.561-60.662
	c-5.131-17.346-15.655-32.826-27.392-45.939c-20.848-23.292-45.229-37.289-75.445-44.363c-17.598-4.12-36.264-2.595-53.199,2.021
	c-11.887,3.24-22.078,7.612-32.246,14.699c-10.129,7.06-12.14,14.728-15.1,26.153c-1.511,5.833-0.402,12.903-6.528,14.081
	c-4.605,0.885-14.567-3.511-18.604-5.318C31.322,335.993,22.339,326.45,16.388,319.164z"/>
<path style="fill:#F9CD75;" d="M504.769,313.224c-4.063-6.449-9.735-6.548-16.265-3.861c-6.395,2.632-12.265,6.806-18.415,9.985
	c-11.422,5.904-24.033,9.934-36.192,14.019c-6.552,2.201-13.113,4.202-19.689,6.028c-3.266-6.31-7.586-12.337-12.362-18.403
	c-12.989-16.495-30.041-29.757-48.964-38.797c-9.813-4.687-20.1-8.75-30.658-12.069c11.581,0.549,23.165,0.454,34.609-1.334
	c32.012-5.001,58.504-28.183,66.902-59.473c2.604-9.703-11.576-13.35-14.874-4.1c-3.575,10.029-8.876,18.625-15.475,25.75
	c-0.956-0.096-1.957,0.176-2.758,0.95c-7.618,7.361-16.857,12.102-26.357,16.701c-16.235,7.86-30.122,4.846-47.188,2.506
	c-6.129-0.84-12.738-1.784-19.563-2.538c13.711-0.707,27.749-0.994,41.259-0.749c-10.59-8.395-24.27-17.205-33.879-28.12
	c-4.687-5.324-9.454-12.24-11.138-19.241c-0.261-1.084-0.436-2.187-0.577-3.298c1.85-0.291,3.454-1.46,3.823-3.709
	c1.194-7.273,0.12-14.299,0.238-21.612c0.136-8.434,1.671-16.738,3.839-24.867c2.136-8.007,5.026-15.752,8.322-23.332
	c0.182-0.114,0.366-0.216,0.547-0.339c3.003-2.045,3.823-5.074,3.126-7.698c2.322-4.898,4.753-9.746,7.222-14.56
	c14.375-28.017,31.605-58.203,59.134-75.033c1.491-0.912,0.843-3.18-0.877-3.238c-14.17-0.48-26.088,12.858-34.73,22.617
	c-12.947,14.619-23.685,31.069-34.008,47.597c-3.513,5.625-6.836,11.407-9.9,17.326c-7.421-1.356-14.939-8.188-19.465-13.03
	c-9.143-9.782-12.61-21.131-19.21-32.262c-1.324-2.233-5.145-2.572-6.378,0c-7.105,14.822,6.814,34.467,16.796,44.787
	c5.089,5.261,13.165,12.016,21.514,14.882c-2.516,5.979-4.732,12.078-6.529,18.303c-0.673,2.33-1.341,4.839-1.967,7.444
	c-18.206-6.345-56.811,24.045-66.704,30.998c-17.73,12.462-35.338,25.077-53.221,37.312c-1.569-2.273-3.251-4.485-4.92-6.93
	c-4.219-6.182-5.409-11.707-5.609-19.195c-0.402-15.013,1.857-29.245,7.104-43.332c4.835-12.981,12.601-24.291,21.187-35.057
	c6.005-7.531,15.693-17.95,15.431-28.148c-0.024-0.931-0.921-1.694-1.856-1.414c-11.854,3.54-23.16,18.617-30.928,27.78
	c-9.966,11.754-17.174,24.375-22.166,38.998c-5.161,15.122-7.44,31.896-6.235,47.876c0.049,0.656,0.131,1.293,0.208,1.933
	c-21.018-16.396-40.551-32.756-55.013-55.544c-1.987-3.131-7.258-2.008-7.186,1.947c0.54,29.631,32.878,50.95,53.487,67.106
	c6.478,5.079,13.362,10.128,20.585,14.721c-13.846,9.021-30.21,18.035-46.587,15.17c-13.583-2.376-26.352-13.864-36.278-22.977
	c-11.24-10.319-16.822-21.53-19.101-36.514c-0.692-4.553,0.211-16.011-6.464-17.326c-5.458-1.074-14.009,13.74-12.767,14.249
	c-11.595,13.761-13.654,30.283-17.695,47.126c-3.662,15.263-5.232,31.214-2.313,46.695c4.504,23.888,9.245,51.165,32.57,62.581
	c8.045,3.937,15.839,4.9,24.415,5.711c1.19-10.576,2.78-21.752,9.323-30.453c11.731-15.602,32.074-23.237,49.567-30.251
	c12.891-5.169,26.705-7.853,40.036-11.574c16.31-4.553,33.303-9.692,50.012-12.342c7.15-1.134,14.381-2.346,21.646-3.542
	c-0.194,0.113-0.392,0.216-0.584,0.332c-1.283,0.772-1.949,1.814-2.134,2.899c-0.762,0.122-1.521,0.245-2.285,0.367
	c-2.554,0.407-2.528,4.701,0,5.132c3.23,0.551,6.482,0.952,9.748,1.262c33.75,6.632,69.048,12.846,100.169,27.932
	c16.83,8.159,32.087,18.72,44.327,32.983c4.343,5.061,8.87,10.84,12.561,16.768c-26.902,6.052-54.179,8.827-82.346,7.815
	c-13.638-0.49-28.615-0.801-42.04-3.203c-7.202-1.289-13.967-4.646-21.186-5.346c4.896,8.662,9.5,19.315,12.762,28.522
	c3.792,10.706,9.05,23.395,9.1,34.809c0.061,13.857-3.143,25.729-8.364,38.424c-3.491,8.489-14.945,21-13.444,30.581
	c9.322-0.329,19.918-5.3,28.577-8.653c11.289-4.371,22.444-9.261,33.395-14.274c22.191-10.16,45.097-17.601,67.711-26.785
	c21.623-8.782,43.146-17.696,64.675-26.875c13.802-5.885,31.736-11.001,42.476-21.834c7.42-7.485,12.662-17.933,15.705-28
	C506.811,339.699,510.338,322.063,504.769,313.224z"/>
<g>
	<path style="fill:#AD514A;" d="M258.123,442.076c-2.502-3.37-6.494-4.851-10.565-3.675c-4.169,1.204-7.419,8.593-9.692,3.171
		c-1.607-3.833-5.168-6.843-9.655-5.482c-3.674,1.115-13.439,9.79-16.065,8.641c-1.586-0.694-3.423-5.706-4.661-7.082
		c-1.693-1.879-3.607-3.296-6.071-4.02c-7.82-2.298-11.859,4.358-18.64,5.848c-3.915,0.86-8.117-3.21-11.738-4.789
		c-2.941-1.282-5.886-2.215-8.925-2.895c-0.055-4.182-0.357-8.46-2.532-12.119c-2.588-4.352-7.123-6.283-12.034-6.308
		c-2.612-0.013-5.202,0.475-7.785,0.791c-0.499,0.061-1,0.104-1.499,0.161c-0.358-1.116-0.644-2.391-0.859-3.934
		c-0.74-5.32-1.109-10.475-3.083-15.533c-1.531-3.923-6.046-6.741-10.124-4.119c-2.603,1.674-11.653,12.307-11.606,12.318
		c-0.83-0.196-2.476-5.355-3.126-6.277c-1.886-2.677-3.957-4.123-7.068-5.171c-4.003-1.349-7.682,1.588-9.019,5.121
		c-2.981,7.878-3.939,16.516-3.217,24.896c0.094,1.09,0.404,2.019,0.842,2.819c1.59,11.054,18.012,22.205,26.485,26.611
		c0.302,0.157,0.606,0.311,0.908,0.469c0.069,0.124,0.113,0.25,0.19,0.373c7.471,11.769,21.114,19.869,35.414,22.369
		c6.305,3.532,13.31,5.945,20.538,7.686c14.66,3.531,31.328,6.055,46.086,1.996c2.642,0.102,5.305-0.028,7.995-0.495
		c9.969-1.732,18.611-8.79,24.918-16.428C258.919,460.496,264.001,449.993,258.123,442.076z"/>
	<path style="fill:#AD514A;" d="M416.096,167.054c-5.39-0.876-10.114-0.79-14.913,2.12c-2.983,1.809-5.132,4.762-7.518,7.312
		c-4.981-1.072-10.359-2.412-15.231-0.761c-1.702,0.577-2.971,1.648-3.783,2.946c-4.207-0.336-7.924,0.657-11.254,3.483
		c-1.871,1.588-3.259,4.44-4.649,7.19c-2.302,1.414-4.555,2.995-6.749,4.837c-0.927,0.779-1.895,1.55-2.886,2.32
		c-4.317-0.53-9.763-2.461-13.317-1.58c-8.059,1.999-13.045,8.678-15.16,16.253c-0.642,0.818-1.045,1.893-1.032,3.248
		c-0.056,1.147-0.063,2.296-0.088,3.444c-0.048,0.817-0.076,1.633-0.063,2.441c-0.012,0.881,0.171,1.647,0.475,2.317
		c0.134,1.028,0.317,2.053,0.601,3.071c0.553,1.982,2.02,2.994,3.61,3.199c0.443,6.042,3.651,10.922,11.483,10.658
		c1.939,2.104,4.947,3.568,9.358,4.036c2.911,0.309,5.723-0.192,8.414-1.277c0.342,0.132,0.664,0.275,1.032,0.391
		c5.438,1.719,10.588,0.206,15.308-3.126c3.755,0.55,8.084-0.345,11.621-2.171c13.895-7.171,26.892-25.148,30.794-42.104
		c2.487-4.459,4.316-8.929,5.239-13.093c0.193-0.869,0.238-1.743,0.178-2.601c0.499-0.363,1.003-0.753,1.525-1.205
		C422.729,175.247,421.046,167.859,416.096,167.054z"/>
</g>
<g>
	<path style="fill:#9C413E;" d="M235.001,463.111c-9.559-3.05-18.762-7.619-28.279-10.927c-10.059-3.496-20.357-5.664-30.506-8.759
		c-16.511-5.036-37.481-18.465-55.076-12.568c-2.826,0.947-4.466,4-4.058,6.697c-3.938-2.289-7.825-4.632-11.624-7.038
		c-3.11-1.97-7.01,2.848-4.015,5.203c33.749,26.543,75.12,57.36,120.95,46.489c4.878-1.157,5.271-9.384,0-10.265
		c-20.439-3.418-40.737-5.515-60.298-12.8c-9.831-3.661-19.585-8.027-29.095-12.879c4.172,1.232,8.385,2.378,12.452,3.944
		c9.215,3.547,18.387,7.328,27.974,9.789c19.459,4.995,39.545,8.244,59.35,11.181C237.984,471.948,240.263,464.79,235.001,463.111z"
		/>
	<path style="fill:#9C413E;" d="M396.766,187.78c-12.203-0.271-26.521,6.773-37.45,11.698c-11.076,4.991-21.34,11.859-24.919,24.022
		c-0.324,1.102-0.173,2.198,0.284,3.163c-1.668,0.996-2.382,3.661-0.917,5.536c12.038,15.408,35.252,8.377,49.907,1.371
		c5.106-2.441,2.428-10.34-2.796-10.323c-12.385,0.04-26.608,9.121-38.644,5.507c0.145-0.141,0.292-0.275,0.427-0.445
		c6.948-8.813,18.71-12.848,28.938-16.451c9.688-3.413,22.658-5.16,29.586-13.415C404.601,194.371,402.469,187.907,396.766,187.78z"
		/>
</g>
<g>
	<path style="fill:#5CBF4B;" d="M268.43,392.858c-0.817-2.103-1.715-4.077-2.648-6.002c-8.623-34.719-24.818-64.535-58.492-81.965
		c-19.973-10.338-44.097-15.733-66.583-12.868c-18.696-7.609-50.3,10.514-55.478,28.998c-3.64,12.991,7.047,20.816,18,24.428
		c9.894,3.263,21.91,3.934,31.294,8.704c-0.185,3.106,1.388,6.369,4.178,8.5c3.032,2.316,6.412,3.762,9.971,4.655
		c1.748,0.991,3.698,1.26,5.559,0.969c5.96,0.649,12.17,0.261,17.952,0.091c1.357-0.04,2.995-0.166,4.713-0.257
		c3.67,9.7,7.515,18.814,14.347,26.773c3.137,3.655,9.116,3.036,12.343,0c-1.7,1.599-0.506,0.2,1.531,0.778
		c1.568,0.445,3.396,0.584,5.01,0.89c3.531,0.668,7.055,1.524,10.647,1.826c8.771,0.737,13.036,0.98,17.752,9.298
		c4.963,8.753,11.164,24.523,24.369,17.342C274.74,418.574,272.446,403.191,268.43,392.858z"/>
	<path style="fill:#5CBF4B;" d="M432.834,83.282c-0.728-14.31-2.495-30.601-11.226-42.544c-13.053-17.854-34.923-11.657-50.55-0.98
		c-19.711,13.467-34.497,32.822-46.62,53.138c-6.895,11.556-11.68,23.863-16.349,36.426c-2.94,7.909-6.895,18.111-1.866,25.96
		c0.287,0.447,0.671,0.786,1.104,1.032c12.463,16.724,40.402-14.445,51.621-35.374c0.375-0.366,0.752-0.732,1.137-1.095
		c0.037-0.035,0.091-0.091,0.133-0.131c0.045,0.022,0.08,0.052,0.126,0.072c10.137,4.634,18.649,10.8,29.97,6.41
		c6.265-2.429,12.408-6.97,17.294-12.376c2.367-0.392,4.584-1.491,6.569-3.066c0.789,6.477,10.293,11.41,15.855,5.637
		C437.467,108.677,433.33,93.031,432.834,83.282z"/>
</g>
<g>
	<path style="fill:#38AD34;" d="M398.675,105.641c-7.007,2.437-18.717,9.899-26.228,6.872c-4.149-1.673-5.412-4.899-10.526-4.752
		c-3.683,0.105-7.082,2.092-10.152,3.931c-8.285,4.961-15.334,11.609-21.749,18.763c-2.576,2.873-5.08,5.857-7.831,8.579
		c0.266-0.874,0.514-1.622,0.742-2.097c1.333-2.785,2.881-5.456,4.298-8.197c3.646-7.051,6.571-14.47,10.017-21.625
		c5.552-11.526,11.766-22.989,19.48-33.226c5.432-6.191,11.27-11.97,17.335-17.727c1.006-0.955,2.015-1.915,3.03-2.872
		c0.061-0.059,0.129-0.113,0.184-0.174c3.627-3.412,7.362-6.748,11.542-9.437c5.046-3.247,10.198-4.071,13.726-9.071
		c1.77-2.509,0.367-6.085-1.987-7.58c-10.819-6.867-25.335,7.304-32.976,14.21c-11.564,10.45-22.279,21.294-31.434,33.947
		c-8.822,12.193-17.058,25.333-23.004,39.177c-3.167,7.373-6.541,16.173-7.345,24.803c-1.833,4.399-2.908,9.074-1.571,13.379
		c7.463,24.035,36.069-10.052,42.163-16.77c2.99-3.295,10.933-13.217,15.964-13.596c-1.264,0.095,1.35,1.547,2.573,2.271
		c1.815,1.074,4.029,1.711,6.083,2.145c10.919,2.305,23.965-2.792,32.689-9.04C409.257,113.572,406.18,103.03,398.675,105.641z"/>
	<path style="fill:#38AD34;" d="M262.889,382.396c-3.855-13.156-9.032-26.179-16.131-37.94
		c-13.957-23.121-35.557-37.357-59.247-49.415c-15.477-7.878-29.916-7.218-46.744-5.642c-11.464,1.074-22.85,1.214-32.204,8.719
		c-2.205,1.769,0.248,4.826,2.536,4.357c12.039-2.467,26.066,0.022,38.403-0.461c9.783-0.383,18.874-0.314,27.904,3.855
		c5.912,2.729,11.294,6.444,16.793,9.89c13.187,8.264,25.112,14.973,34.265,28.055c8.709,12.448,14.377,26.722,18.372,41.3
		c1.29,4.708,2.377,9.477,3.375,14.262c-0.085-0.064-0.162-0.124-0.209-0.168c-8.074-7.554-14.99-17.701-26.35-20.5
		c-5.554-1.369-14.598,2.21-19.412-0.232c-4.433-2.249-7.578-10.76-11.019-14.319c-8.052-8.327-21.217-15.026-32.833-11.293
		c-5.919,1.902-5.941,10.147,0,12.046c6.649,2.125,12.497,2.845,17.763,7.984c4.466,4.358,6.876,10.259,11.042,14.86
		c3.464,3.824,7.988,6.746,13.18,7.513c7.078,1.047,13.781-4.258,20.242-0.36c9.8,5.912,14.494,17.872,24.477,23.903
		c7.533,4.552,18.916,5.495,21.738-4.909C271.28,404.876,265.383,390.908,262.889,382.396z"/>
</g>
<g>
	<path style="fill:#EB3840;" d="M423.324,115.994c-11.723,2.95-21.484,2.007-30.75,10.817c-5.046,4.798-6.487,5.422-13.361,2.614
		c-4.635-1.894-9.536-4.104-14.666-4.086c-10.353,0.036-16.913,10.213-21.722,18.056c-2.776,4.528-5.177,9.775-9.154,13.416
		c-6.055,5.543-15.24,4.193-22.763,4.139c-0.508-0.004-0.997,0.052-1.472,0.143c-0.773-2.075-3.201-3.612-5.463-2.131
		c-5.888,3.857-4.606,14.255-4.241,20.171c0.74,11.985,4.051,23.234,7.385,34.728c1.736,5.983,9.775,5.533,11.702,0
		c2.277-6.54,3.805-16.405,10.564-19.962c7.728-4.067,17.223,2.25,25.325-2.086c6.924-3.706,7.397-11.892,12.933-16.347
		c4.788-3.853,13.095,1.585,19.198,0.964c7.134-0.725,9.738-5.165,14.781-9.29c6.037-4.938,13.177,1.85,19.928-2.895
		c4.872-3.424,6.233-9.903,7.145-15.407c1.441-8.701,2.776-17.841,2.773-26.64C431.464,117.945,427.363,114.978,423.324,115.994z"/>
	<path style="fill:#EB3840;" d="M263.684,424.368c-0.876-0.006-1.691-0.14-2.473-0.341c-0.554-0.539-1.225-0.984-2.046-1.256
		c-7.093-2.34-13.809-3.716-19.488-8.899c-4.536-4.14-7.481-10.154-13.38-12.579c-7.388-3.038-14.872,0.422-22.476-0.13
		c-7.975-0.578-13.733-3.864-17.12-11.177c-2.546-5.498-4.058-11.338-9.394-14.929c-5.943-4-13.169-2.951-19.903-2.894
		c-3.298,0.028-7.106,0.158-10.752-0.242c-1.022-1.02-1.968-2.114-2.771-3.346c-2.285-3.77-6.125-4.374-9.278-3.13
		c-1.904-2.96-3.276-6.325-6.778-8.172c-0.153-0.081-0.306-0.127-0.459-0.193c-3.497-5.551-9.12-9.297-16.627-10.401
		c-7.15-1.051-15.506-2.451-21.033-7.612c-4.729-4.417-5.766-11.445-8.669-17.092c3.249-5.499,7.907-10.173,11.225-15.698
		c0.532-0.887-0.528-1.936-1.412-1.412c-8.532,5.053-14.92,8.139-19.475,17.81c-4.123,8.754-4.948,19.41-4.628,28.949
		c0.386,11.478,2.502,23.124,5.486,34.187c2.161,8.01,2.518,20.141,10.137,24.934c0.242,0.88,0.507,1.734,0.815,2.526
		c1.016,2.614,4.467,2.731,5.447,0c2.38-6.634-0.497-15.794,4.114-21.583c0.514-0.645,1.051-1.096,1.599-1.459
		c0.311-0.143,0.618-0.307,0.923-0.497c5.116-2.055,11.407,5.494,17.203,5.866c7.831,0.502,13.378-4.882,16.392-11.604
		c13.561,5.042,3.715,28.602,21.551,28.563c2.208-0.005,5.721-1.617,7.765-1.065c3.174,0.858,2.107,3.199,2.544,6.595
		c0.841,6.54,3.846,10.35,9.192,13.957c3.871,2.612,9.293,6.334,14.23,5.657c2.35-0.322,3.133-1.598,4.972-2.72
		c2.449-1.495,7.131-4.704,10.309-3.718c1.016,0.315,2.288,2.578,3.018,3.344c3.996,4.196,8.591,7.857,14.756,6.206
		c7.104-1.902,11.305-11.345,17.271-2.512c1.7,2.517,5.45,4.146,8.249,2.163c3.472-2.46,6.9-7.123,11.601-6.771
		c2.972,0.223,6.007,2.51,9.363,2.731C271.377,436.932,271.5,424.422,263.684,424.368z"/>
</g>
<g>
	<path style="fill:#CF242C;" d="M257.552,426.493c-1.246,0.802-10.316-2.763-12.806-2.383c-1.271,0.194-2.382,0.546-3.361,1.034
		c-3.246-3.453-6.977-5.326-13.297-5.332c-5.891-0.005-10.421,1.497-14.188,4.536c-2.891-2.169-6.682-3.472-10.813-4.48
		c-8.564-2.091-14.516-1.382-20.622,2.852c-2.194-0.787-5.857-0.375-7.371-1.519c-3.228-2.438-2.575-9.951-5.014-13.477
		c-2.409-3.481-5.961-5.456-10.146-5.906c-2.259-0.243-5.748,1.015-8.103,0.683c-0.019-0.238-0.046-0.507-0.086-0.825
		c0.137-1.236,0.324-2.463,0.561-3.683c1.208-9.702-0.834-19.288-12.096-20.899c-5.402-0.772-10.831,1.044-15.743,3.118
		c-1.6,0.676-3.243,1.735-4.892,2.594c-2.554,0.231-5.748-1.111-7.126-2.227c-0.825-0.669-1.333-1.946-2.054-2.752
		c-1.499-1.677-3.065-3.118-5.162-3.979c-3.035-1.246-6.175-1.081-9.094-0.046c-3.402-2.54-6.548-5.423-9.738-8.257
		c-0.474-1.084-0.868-2.259-1.112-3.608c-0.34-1.882-2.144-2.636-3.808-2.412c-0.348-3.474-0.559-6.981-0.568-10.568
		c-0.015-6.255-8.794-7.203-10.669-1.444c-3.592,11.037-1.276,21.582,1.453,32.573c2.459,9.904,2.783,21.216,7.606,30.286
		c2.77,5.21,10.768,2.653,10.829-2.933c0.06-5.574,1.331-11.42,3.968-16.381c0.476-0.896,1.229-2.353,2.162-3.633
		c0.957,0.226,1.931,0.37,2.912,0.464c1.527,0.914,3.094,1.721,4.683,2.475c3.893,3.865,8.613,6.285,14.375,4.801
		c0.195,0.043,0.383,0.096,0.579,0.137c1.862,0.388,3.194-0.561,3.728-1.865c5.014-2.52,12.869-6.992,16.77-4.393
		c4.591,3.059,0.211,10.817,0.339,15.388c0.11,3.94,1.661,7.46,5.165,9.458c4.661,2.658,10.273-0.969,14.278,1.251
		c3.333,1.848,2.273,10.466,5.048,14.168c1.559,2.08,3.387,3.316,5.713,4.324c1.095,0.474,6.064,0.762,6.556,1.572
		c2.349,3.869,7.545,4.45,10.799,1.392c4.171-3.919,5.831-6.298,11.88-5.391c1.988,0.298,7.69,1.452,7.779,3.585
		c0.263,6.312,8.2,8.331,11.634,3.151c2.532-3.819,4.639-5.609,9.263-6.243c5.152-0.708,5.803,1.421,8.158,5.502
		c2.763,4.788,8.874,2.998,10.702-1.399c0.381-0.915,7.83,2.197,9.021,2.427c3.084,0.595,5.394,0.439,8.215-0.948
		C271.039,433.747,264.378,422.1,257.552,426.493z"/>
	<path style="fill:#CF242C;" d="M420.602,150.327c-3.498-0.004-6.656-2.966-10.17-3.433c-2.987-0.398-5.604,0.227-8.311,1.536
		c-6.588,3.186-11.171,12.859-17.969,14.801c-4.215,1.204-9.29-1.897-13.617-2.173c-3.832-0.245-7.329,0.386-10.627,2.402
		c-6.229,3.807-7.073,11.102-12.203,15.446c-6.211,5.26-17.072-0.913-24.739,2.857c-5.078,2.497-7.561,7.217-9.793,12.161
		c-2.36,5.229-9.62,22.026-1.452,25.86c1.929,0.905,4.237-0.994,3.047-3.047c-0.738-1.272,8.604-19.701,11.616-22.456
		c5.266-4.818,14.679-0.29,21.319-1.276c5.21-0.773,8.892-3.329,12.156-7.413c4.677-5.852,4.637-12.301,13.558-11.638
		c6.496,0.483,11.102,2.501,17.463-0.27c3.867-1.684,6.756-4.36,9.709-7.117c3.895-1.067,7.321-3.162,11.071-4.544
		c0.364,0.13,0.719,0.257,1.148,0.41c2.771,0.988,4.821,1.646,7.795,1.797C429.507,164.685,429.595,150.337,420.602,150.327z"/>
</g>
<g>
	<path style="fill:#FFD45C;" d="M164.543,328.157c2.464-8.019-2.689-16.441-11.238-17.815c-5.407-0.87-10.838,0.712-14.727,4.131
		c-4.893,2.018-9.404,6.373-9.019,11.053c-0.357,1.295-0.553,2.621-0.54,3.937c0.115,11.243,10.009,13.787,19.37,11.48
		c7.078,3.326,16.143-0.859,16.865-9.412C165.364,330.223,165.08,329.098,164.543,328.157z"/>
	<path style="fill:#FFD45C;" d="M221.141,314.198c-0.299-4.285-4.014-7.972-8.472-6.987c-1.04-1.089-2.354-1.94-3.824-2.518
		c-0.889-1.085-1.963-2.039-3.261-2.793c-2.55-1.479-5.095-1.889-7.495-1.517c-1.445-3.688-6.502-5.813-9.664-2.283
		c-5.932,6.623-11.344,17.002-6.855,25.825c3.562,7.003,12.797,11.47,20.326,8.362c0.053-0.022,0.099-0.057,0.151-0.079
		c3.156-0.35,6.25-1.649,8.874-3.532C215.451,325.424,221.568,320.323,221.141,314.198z"/>
	<path style="fill:#FFD45C;" d="M223.854,356.225c-5.623-1.177-11.718,0.103-16.132,3.593c-2.106-0.024-4.209,1.033-5.465,2.959
		c-3.018,4.626-1.609,8.941,1.551,12.04c0.134,0.142,0.244,0.296,0.396,0.428c0.697,0.609,1.395,1.137,2.123,1.567
		c1.739,1.111,3.702,1.937,5.66,2.373c7.129,1.586,16.255,1.361,20.71-5.377C237.666,366.291,231.742,357.876,223.854,356.225z"/>
	<path style="fill:#FFD45C;" d="M264.819,372.485c-0.181-0.322-0.354-0.647-0.53-0.971c-0.132-0.483-0.278-0.959-0.447-1.432
		c0.051-1.222,0.059-2.333-0.144-3.678c-0.377-2.502-2.012-4.023-4.034-4.696c-2.117-2.203-6.3-1.889-7.66,1.115
		c-0.514,0.309-1,0.669-1.408,1.14c-2.452,0.927-4.374,3.962-2.722,6.636c0.338,0.547,0.563,1.15,0.733,1.779
		c0.013,1.553,0.207,3.097,0.52,4.62c0.048,0.358,0.136,0.702,0.208,1.051c0.061,0.409,0.133,0.811,0.234,1.198
		c0.1,0.387,0.243,0.737,0.403,1.071c0.295,0.81,0.632,1.613,1.059,2.411c0.17,0.317,0.371,0.613,0.594,0.891
		c1.195,2.054,2.702,3.907,4.6,5.361c2.139,1.638,5.698,1.275,7.877,0c2.529-1.48,3.624-3.928,3.865-6.738
		C268.271,378.696,266.499,375.475,264.819,372.485z"/>
	<path style="fill:#FFD45C;" d="M325.33,118.829c-0.364-0.8-1.103-1.53-1.973-2.075c-1.147-2.6-4.661-3.523-7.333-1.42
		c-5.418,4.265-7.064,11.4-9.238,17.702c-1.035,3,1.209,5.805,3.859,6.796C321.402,143.856,329.059,127.016,325.33,118.829z"/>
	<path style="fill:#FFD45C;" d="M373.124,72.835c-0.476-4.009-2.031-9.346-6.622-10.318c-0.384-0.081-0.779-0.116-1.175-0.117
		c-1.005-1.882-2.055-3.756-2.737-5.815c-1.165-3.514-4.572-4.597-7.786-3.168c-6.622,2.944-10.595,8.447-14.46,14.234
		c-3.66,3.267-6.92,7.664-8.86,12.178c-2.016,2.916-3.749,5.99-4.626,9.541c-0.875,3.541,2.228,6.019,5.115,5.66
		c4.5,5.927,12.26,4.428,19.131,0.799c6.976,1.607,13.595-4.618,17.751-10.026c0.114-0.148,0.183-0.316,0.279-0.472
		c0.817-0.466,1.5-1.14,1.912-2.06C372.596,79.803,373.582,76.691,373.124,72.835z"/>
	<path style="fill:#FFD45C;" d="M411.747,68.356c-0.341-1.426-0.802-2.793-1.394-4.045c-0.956-5.057-3.482-10.531-8.905-11.881
		c-5.979-1.488-10.622,2.952-12.77,8.041c-3.85,9.123-4.451,26.011,7.18,29.842c9.525,3.137,14.877-3.539,16.238-11.695
		c0.471-0.904,0.813-1.91,0.973-3.095C413.411,72.968,413.01,70.493,411.747,68.356z"/>
</g>
<path d="M490.522,262.753c-10.995-20.105-25.531-37.465-41.401-53.866c-5.881-6.079-13.089-11.769-21.83-12.676
	c-3.577-0.371-6.898,0.522-9.971,2.079c2.477-4.929,4.625-9.914,6.48-14.633c7.627-19.391,12.964-39.351,14.912-60.128
	c1.974-21.057,1.319-42.995-3.344-63.689c-3.243-14.39-11.374-29.37-25.958-34.672c-4.085-1.485-8.12-2.156-12.089-2.191
	c-0.371-0.11-0.735-0.216-1.089-0.319c-21.825-6.341-44.509-0.582-65.513,6.168c-25.942,8.337-51.364,17.954-77.107,26.856
	c-24.682,8.536-50.29,14.709-73.239,27.562c-10.003,5.603-19.491,12.065-29.494,17.659c-13.191,7.377-27.232,12.568-41.154,18.336
	c-20.578,8.525-42.375,17.953-60.576,31.004C16.038,173.984,1.99,221.754,0.171,260.786c-1.071,22.985,2.714,48.758,16.099,68.066
	c9.842,14.197,28.361,23.691,45.668,20.546c0.366,11.807,2.619,23.739,5.17,34.184c8.948,36.64,28.009,66.357,60.085,87.042
	c36.666,23.645,78.142,26.458,119.427,14.732c21.669-6.154,41.849-15.848,62.342-25.002c24.959-11.15,50.204-21.588,75.763-31.288
	c22.841-8.668,46.233-15.916,68.733-25.467c16.687-7.083,35.386-15.3,46.765-30.085
	C524.018,342.596,507.063,292.999,490.522,262.753z M416.625,174.978c-2.879,8.105-6.102,16.157-9.813,23.932
	c-6.039-4.076-15.474-4.579-22.088-1.627c-8.392,3.745-11.526,16.609-20.486,17.897c-8.015,1.152-13.487-2.052-19.937,4.559
	c-3.728,3.821-6.272,9.208-6.714,14.596c-3.88-1.872-7.434-3.96-10.378-6.016c-1.882-1.315-3.624-2.742-5.258-4.248
	c-0.239-9.658,0.69-20.395,9.289-25.796c9.825-6.17,20.876,4.517,29.175-5.819c4.598-5.726,5.533-12.388,14.37-13.187
	c5.321-0.481,10.46,1.982,15.799,1.473c8.479-0.808,19.785-16.528,27.728-10.674C417.757,171.706,417.205,173.345,416.625,174.978z
	 M404.29,203.962c-2.426,4.509-5.236,8.724-8.016,12.965c-9.371,9.847-18.86,19.625-31.691,23.985
	c-7.398,0.455-15.789-1.735-23.351-4.937c2.992-7.009,5.529-14.939,14.727-15.587c5.376-0.378,9.908,2.072,15.101-0.544
	c5.054-2.546,7.081-7.996,10.782-11.865C389.195,200.293,395.72,203.928,404.29,203.962z M429.401,120.017
	c-1.236,14.653-4.418,28.823-8.726,42.758c-6.58-5.132-18.047,2.193-23.752,6.524c-8.014,6.083-14.16,1.871-23.058,2.713
	c-6.772,0.641-11.877,4.168-15.331,9.897c-3.392,5.624-4.644,9.148-12.348,8.536c-3.09-0.246-5.754-1.274-8.931-0.988
	c-5.878,0.528-11.241,3.547-14.91,8.12c-4.289,5.346-6.435,12.5-6.581,19.634c-5.921-7.906-9.516-17.375-11.264-27.489
	c-1.762-10.198-1.784-20.349-0.548-30.354c4.845,4.084,13.303,5.306,18.593,4.049c13.224-3.142,21.026-16.78,29.076-26.573
	c2.198-2.673,4.624-6.031,7.684-7.773c5.689-3.241,8.922-1.126,13.714,1.699c5.086,2.999,9.98,3.615,15.567,1.383
	c6.106-2.44,10.426-7.556,16.018-10.805c8.782-5.102,16.391-0.448,24.827-1.773C429.42,119.721,429.414,119.869,429.401,120.017z
	 M415.887,37.2c7.853,8.014,11.111,20.964,12.425,32.129c1.712,14.537,2.335,29.282,1.549,43.916
	c-10.497-3.915-21.911-3.741-31.339,2.814c-6.05,4.206-12.29,12.067-20.603,8.762c-5.086-2.022-7.751-6.116-13.798-5.709
	c-10.089,0.678-16.524,10.929-22.087,18.122c-3.892,5.032-7.858,10.414-12.628,14.673c-5.158,4.605-19.55,9.36-24.515,1.173
	c0.661-3.747,1.491-7.47,2.463-11.164c9.862,2.506,19.032-2.823,21.726-13.018c2.012-7.614-1.293-18.133-9.5-19.83
	c2.257-4.812,4.649-9.536,7.114-14.156c14.714,9.607,37.814,4.848,45.922-11.402c3.189-6.393,2.672-14.038,0.069-20.515
	c-1.969-4.899-6.423-11.667-11.949-13.96c9.517-9.164,21.427-18.419,34.376-19.361C402.577,31.045,409.952,33.468,415.887,37.2z
	 M308.394,138.161c2.275-7.838,5.168-15.531,8.444-23.031c0.717,0.207,1.434,0.407,2.052,0.657c3.319,1.343,4.666,4.667,4.717,8.056
	C323.737,132.438,316.657,138.865,308.394,138.161z M328.178,92.208c7.482-13.62,16.245-26.48,27.074-37.686
	c0.065-0.068,0.135-0.138,0.201-0.206c3.641,3.392,7.944,5.219,10.505,10.273c2.739,5.407,3.566,12.109,0.535,17.582
	C358.305,96.956,342.026,95.237,328.178,92.208z M300.603,51.589c22.338-8.642,45.909-19.683,69.819-22.812
	c2.059-0.27,4.318-0.444,6.712-0.511C355.94,39.342,338.253,65.312,328.111,82.3c-5.222,8.746-9.701,17.801-13.718,27.069
	c-0.425,0.239-0.794,0.563-0.998,1.027c-0.389,0.888-0.475,1.585-0.363,2.154c-1.608,3.829-3.148,7.689-4.625,11.582
	c-3.456-2.054-7.754-1.804-12.147-3.003c-8.665-2.364-17.32-7.929-23.675-14.212c-10.724-10.604-16.135-23.422-18.236-37.566
	C269.9,63.799,285.199,57.548,300.603,51.589z M198.429,88.059c12.114-4.791,24.557-8.595,37.479-12.55
	c4.501-1.377,8.963-2.862,13.407-4.396c0.116,13.112,5.608,25.627,14.108,36.086c6.183,7.608,14.084,13.353,22.866,17.652
	c5.414,2.65,13.208,5.484,19.867,5.348c-0.353,0.974-0.714,1.943-1.062,2.919c-6.804,19.135-12.855,37.468-11.431,58.068
	c1.321,19.109,9.615,36.726,25.931,47.418c3.383,2.217,7.34,4.281,11.588,5.996c-29.36-3.291-59.652,0.359-89.004,5.95
	c-32.713,0.078-66.749-8.894-94.442-24.739c-7.828-23.144-7.66-46.401,0.136-69.958C157.479,126.826,173.522,104.493,198.429,88.059
	z M111.493,132.712c20.412-9.17,39.571-19.468,58.77-30.896c-13.633,14.841-23.067,34.818-28.641,52.313
	c-4.32,13.56-6.378,28.165-5.971,42.395c0.209,7.261,0.685,17.407,4.549,24.691c-28.041-18.122-47.637-43.047-63.763-71.966
	C88.017,143.451,99.811,137.96,111.493,132.712z M62.144,339.193c-6.089-1.372-12.339-1.762-18.283-3.823
	c-8.822-3.058-15.395-9.405-20.218-17.269c-10.396-16.949-13.822-37.708-13.542-57.315c0.28-19.592,4.39-39.108,11.613-57.301
	c7.673-19.326,17.442-34.152,35.925-44.404c4.709-2.612,9.506-5.138,14.345-7.613c15.168,33.78,40.886,62.17,72.927,80.895
	c17.748,10.372,37.503,16.923,57.656,20.683c5.162,0.963,10.453,1.804,15.801,2.415c-3.034,0.665-6.056,1.333-9.055,2.005
	c-42.212,9.459-90.26,16.772-126.661,41.814C68.816,308.798,63.318,323.449,62.144,339.193z M183.588,331.816
	c12.537,10.617,35.11,3.658,42.233-10.726c1.814,1.721,3.595,3.486,5.301,5.348c8.66,9.455,16.365,20.194,22.437,31.759
	c-3.365,0.592-6.298,4.009-7.655,6.854c-2.289,4.8-2.136,10.606-0.593,15.602c1.502,4.866,4.432,9.55,9.042,11.986
	c2.926,1.547,7.983,2.164,11.457,0.581c0.559,3.145,0.997,6.311,1.261,9.5c0.402,4.856,0.357,9.56-0.05,14.139
	c-5.37,3.389-10.444,4.22-16.653,2.012c-7.351-2.614-9.365-7.321-12.356-14.072c-3.415-7.709-8.561-11.504-17.144-10.588
	c-8.894,0.949-18.503,4.312-26.077-3.202c-3.923-3.892-4.927-9.974-7.594-14.622c-5.692-9.919-15.696-10.02-26.09-9.701
	c-9.816,0.302-17.11-1.057-23.986-8.709c-3.034-3.376-5.646-7.105-9.245-9.934c-8.437-6.63-19.061-5.15-28.98-7.329
	c-15.925-3.498-17.076-17.994-6.466-28.408c5.876-5.767,12.943-10.121,19.388-15.22c0.467-0.158,0.93-0.32,1.414-0.459
	c13.005-3.752,26.748-5.527,40.282-5.139c11.287,0.324,22.304,2.294,32.733,5.805C177.336,306.537,172.371,322.317,183.588,331.816z
	 M189.565,298.489c11.154,4.161,21.566,10.13,30.836,17.797c-3.437,4.239-6.489,8.496-11.585,11.33
	c-6.512,3.621-15.705,4.049-21.665-0.955C178.305,319.232,182.945,305.949,189.565,298.489z M254.854,360.72
	c4.056,8.13,7.288,16.644,9.453,25.402c-2.441,0.546-4.563,1.876-7.378,0.418c-3.116-1.614-5.254-5.166-6.431-8.349
	c-1.268-3.427-1.883-7.519-0.9-11.095C250.509,363.786,252.652,362.507,254.854,360.72z M81.143,400.913
	c-8.597-23.889-20.425-64.76-0.958-86.187c3.343-3.679,7.684-6.449,12.275-8.825c-6.575,4.726-11.917,10.501-13.117,18.582
	c-3.227,21.74,21.279,21.842,35.541,25.172c11.611,2.711,15.055,14.046,24.29,20.202c4.679,3.119,10.025,4.446,15.592,4.71
	c7.529,0.356,17.752-2.472,23.626,3.201c7.636,7.376,6.368,18.146,17.274,23.166c4.68,2.155,10.165,3.26,15.324,3.064
	c7.564-0.287,15.238-4.949,19.765,3.353c4.844,8.883,7.053,15.406,17.548,19.01c5.247,1.802,11.998,2.486,17.231,0.307
	c-0.725,3.408-1.633,6.751-2.749,10.018c-1.312-2.22-3.52-3.891-6.812-4.647c-7.531-1.728-11.465,2.706-16.514,6.476
	c-1.397-4.104-3.073-7.605-8.279-8.647c-8.018-1.605-12.61,3.892-17.447,8.956c-3.944-6.002-8.245-11.499-16.408-11.808
	c-6.499-0.246-10.434,4.148-14.268,8.643c-1.548-2.382-3.441-4.484-6.051-5.775c-2.864-1.417-3.422-0.646-6.01-1.137
	c-5.499-1.043-5.143,0.272-5.822-3.88c-0.948-5.794,0.183-13.934-7.778-15.049c-4.534-0.635-9.231,3.806-13.169,0.796
	c-3.904-2.985-1.152-9.314-1.433-13.882c-0.402-6.528-4.645-14.335-12.15-13.245c-3.348,0.486-6.215,3.069-8.594,5.274
	c-1.551,1.438-2.843,3.305-4.497,4.62c-3.934,3.129-3.458,2.155-6.636-0.103c-5.593-3.975-10.425-11.165-17.616-4.585
	c-5.825,5.329-7.131,16.587-6.874,24.208C84.412,409.047,82.633,405.055,81.143,400.913z M162.519,473.113
	c-22.861-7.458-44.95-20.666-61.148-38.798c0.27-0.751,0.58-1.468,1.001-2.02c2.065-2.706,9.179-4.184,11.807-1.932
	c1.908,1.635,2.625,5.643,4.19,7.729c3.704,4.936,8.467,5.454,14.291,5.605c4.752,0.123,6.103-0.067,9.678,3.254
	c2.838,2.636,2.223,2.949,3.815,5.414c1.542,2.389,2.651,4.491,5.185,6.105c5.405,3.444,10.342,0.602,15.96-0.541
	c9.523-1.937,8.155,5.663,14.068,10.485c4.236,3.455,8.365,2.621,13.382,2.095c5.483-0.574,7.791,1.267,12.518,2.819
	c2.35,0.772,4.608,1.062,7.079,0.624c3.212-0.569,6.576-3.672,9.702-3.69c4.55-0.026,6.003,2.968,6.9,6.297
	C208.244,480.549,185.15,480.497,162.519,473.113z M240.755,474.591c-0.967,0.218-1.938,0.416-2.908,0.621
	c-1.065-4.779-2.54-9.176-7.806-11.253c-3.05-1.203-6.005-0.87-9.083,0.047c-1.547,0.461-2.97,1.464-4.514,1.859
	c-10.909,2.79-5.523,0.174-11.233-1.427c-3.42-0.959-5.547-1.568-9.198-1.243c-1.781,0.159-4.927,1.431-6.75,1.014
	c-6.093-1.395-5.304-4.407-7.631-7.883c-3.463-5.171-6.986-6.64-13.42-5.71c-7.176,1.037-12.03,5.102-18.122-2.927
	c-2.101-2.769-2.86-5.288-6.112-7.035c-3.33-1.788-6.339-1.231-9.823-1.685c-4.923-0.641-10.058-1.879-13.154-6.128
	c-1.287-1.767-1.835-4.118-3.029-5.966c-7.037-10.891-15.354-4.345-19.428,4.139c-0.249-0.301-0.511-0.591-0.757-0.895
	c-4.309-7.337-5.532-16.168-3.981-24.742c1.115-6.168,3.115-15.136,11.92-6.655c1.574,1.516,2.19,3.86,4.264,4.971
	c4.908,2.629,9.756-1.496,13.163-4.714c3.291-3.109,5.116-7.534,9.43-4.822c4.213,2.649,2.344,7.226,2.477,11.609
	c0.137,4.493,1.123,8.488,5.586,10.483c2.076,0.928,4.236,0.918,6.451,0.744c4.643-0.364,6.342-2.968,9.95,0.944
	c4.633,5.023-1.921,10.542,2.155,15.709c1.412,1.79,3.623,2.489,5.81,2.859c6.051,1.025,10.27,0.742,13.078,7.646
	c1.208,2.969,4.594,4.249,7.144,1.886c2.799-2.594,5.036-7.374,8.178-9.34c7.661-4.797,12.796,3.675,16.867,9.081
	c1.227,1.629,3.651,2.416,5.254,0.677c3.457-3.748,5.664-6.95,10.71-8.554c6.565-2.086,6.002,2.16,7.719,7.219
	c0.803,2.365,3.178,3.265,5.391,2.193c4.468-2.164,17.229-15.228,18.046-1.689c0.048,0.796,0.375,1.466,0.848,1.994
	C253.66,457.112,247.632,466.052,240.755,474.591z M404.303,409.538c-41.908,16.167-81.938,37.009-123.918,52.852
	c-7.659,2.89-15.447,5.573-23.324,7.915c9.752-11.191,15.503-26.408,18.142-40.709c4.528-24.533-1.444-49.489-12.555-71.471
	c-22.543-44.603-65.103-75.03-115.744-73.422c18.452-5.336,37.249-9.399,55.958-13.729c5.921-1.37,11.835-2.783,17.75-4.192
	c14.809-0.387,29.732,0.859,43.97,2.695c29.523,3.806,59.268,10.307,86.068,23.647c25.389,12.638,42.753,29.976,54.292,55.968
	c4.392,9.894,7.837,20.181,10.078,30.772c1.741,8.226,1.125,16.616,2.062,24.755C412.822,406.265,408.558,407.897,404.303,409.538z
	 M495.794,350.019c-4.183,15.554-16.417,25.12-29.892,32.71c-12.328,6.944-25.284,12.58-38.408,17.817
	c0.366-6.109-1.365-13.001-2.384-17.945c-2.395-11.617-6.28-22.753-11.131-33.563c-11.962-26.654-29.523-45.782-55.638-58.886
	c-27.141-13.619-56.985-20.822-86.949-24.796c-10.222-1.356-20.618-2.667-31.01-3.191c9.702-2.198,19.434-4.255,29.24-5.949
	c9.305-1.608,18.608-2.797,27.929-3.631c3.345-0.189,6.701-0.374,10.094-0.441c11.022-0.217,22.049,0.034,33.072,0.007
	c16.436-0.04,30.764-2.019,43.965-12.501c6.595-5.238,12.361-11.509,18.078-17.666c5.045-5.434,10.28-12.842,17.151-16.025
	c10.119-4.688,17.192,5.787,23.275,12.722c5.508,6.279,11.167,12.465,16.378,18.994
	C482.892,266.904,506.162,311.466,495.794,350.019z"/>
<path d="M131.469,313.549c-7.94,8.28-8.778,20.789,0.544,26.482c7.709,6.575,19.345,7.801,28.237,2.608
	c11.014-6.433,13.711-21.296,4.522-30.583C155.728,302.915,139.992,304.661,131.469,313.549z M164.193,326.121
	c-0.028,12.877-16.038,16.924-25.82,12.551c-4.446-1.987-7.308-4.988-8.685-8.342c-0.361-1.286-0.463-2.688-0.195-4.24
	c0.917-5.33,5.184-8.863,9.815-11.081C148.888,310.421,164.222,312.887,164.193,326.121z"/>
<path d="M207.713,383.96c11.263,5.691,29.631,1.714,30.977-12.96c0.63-6.874-3.424-12.968-9.712-15.578
	c-5.923-2.458-12.728-1.375-19-0.039c-0.674,0.119-1.34,0.265-1.996,0.434c-0.653,0.144-1.3,0.287-1.936,0.424
	c-0.341,0.074-0.566,0.239-0.727,0.437c-1.885,0.728-3.636,1.681-5.145,2.909C190.809,367.208,199.329,379.723,207.713,383.96z
	 M207.801,360.368c1.397-0.515,2.871-0.907,4.38-1.186c9.274,0.167,22.149,0.514,19.341,12.371
	c-2.495,10.535-17.688,9.679-24.596,4.853C199.572,371.27,199.072,363.585,207.801,360.368z"/>
<path d="M88.724,372.421c0.608,1.394,1.862,1.81,3.077,1.594c0.203-0.015,0.41-0.036,0.629-0.086
	c0.151-0.034,0.302-0.068,0.452-0.103c3.519-0.799,3.596-5.875,0.456-7.17c-3.562-1.469-6.141,2.267-4.767,5.415
	C88.622,372.189,88.673,372.305,88.724,372.421z"/>
<path d="M105.345,366.117c1.289-0.481,2.227-1.387,2.418-2.806c0.182-1.355-0.45-2.636-1.611-3.363
	c-0.405-0.254-0.919-0.551-1.365-0.652c-0.215-0.029-0.429-0.058-0.644-0.087c-2.816-0.656-5.225,2.328-3.832,5.138
	C101.185,366.112,103.619,366.761,105.345,366.117z"/>
<path d="M104.237,381.305c0.176,1.308,0.875,2.434,2.034,3.112c1.435,0.84,2.856,0.627,4.3,0c2.447-1.062,3.227-4.467,1.948-6.624
	c-0.782-1.319-2.783-2.01-4.206-1.302C105.888,376.558,103.898,378.779,104.237,381.305z"/>
<path d="M124.973,374.728c4.194,0,4.2-6.518,0-6.518C120.78,368.211,120.772,374.728,124.973,374.728z"/>
<path d="M159.558,390.406c0.262,2.387,1.674,3.818,4.082,4.082l0.265,0.029c1.485,0.163,3.065-0.948,3.779-2.168
	c0.824-1.409,0.724-3.002,0-4.417c-0.286-0.559-0.749-1.15-1.316-1.44c-0.085-0.043-0.169-0.087-0.254-0.13
	c-1.415-0.724-3.008-0.824-4.417,0c-1.22,0.713-2.33,2.294-2.168,3.779L159.558,390.406z"/>
<path d="M163.427,405.737c-2.635,1.134-2.635,5.81,0,6.944c1.688,0.726,3.148,0.967,4.78-0.062c1.139-0.718,2.193-1.978,2.128-3.41
	c-0.067-1.495-0.909-2.618-2.128-3.41C166.587,404.749,165.127,405.005,163.427,405.737z"/>
<path d="M180.318,417.631c2.381,1.005,4.774-0.337,5.592-2.685c0.395-1.135,0.465-2.291,0.148-3.454
	c-0.376-1.378-1.79-2.549-3.261-2.482c-1.992,0.09-3.397,1.115-4.46,2.744C176.97,413.848,178.15,416.716,180.318,417.631z"/>
<path d="M182.411,406.538c0.152,0.09,0.312,0.171,0.416,0.239c3.617,2.371,7.883-3.096,4.644-6.019
	c-1.04-0.939-2.208-1.56-3.639-1.519c-0.562,0.016-0.948,0.103-1.433,0.257c-0.495,0.139-0.923,0.393-1.311,0.714
	c-0.04,0.028-0.102,0.073-0.203,0.146c-1.423,1.017-2.245,2.968-1.203,4.586C180.365,406.002,181.345,406.507,182.411,406.538z"/>
<path d="M215.49,418.614c0.103-0.027,0.206-0.054,0.308-0.081c3.974-1.045,3.978-7.007,0-8.053
	c-0.103-0.027-0.206-0.054-0.308-0.081c-2.676-0.704-5.392,1.329-5.392,4.107C210.098,417.275,212.813,419.318,215.49,418.614z"/>
<path d="M193.649,419.324c1.483,1.483,4.199,1.594,5.662,0c1.467-1.598,1.583-4.08,0-5.662c-0.221-0.221-0.441-0.441-0.662-0.662
	c-1.483-1.483-4.199-1.594-5.662,0c-1.467,1.598-1.583,4.079,0,5.662C193.208,418.883,193.429,419.103,193.649,419.324z"/>
<path d="M146.317,391.532c0.313,1.091,1.16,2.071,2.276,2.326c0.972,0.221,1.815,0.017,2.547-0.444
	c0.514-0.221,0.98-0.543,1.42-0.978c0.975-0.964,1.392-2.471,1.003-3.795c-0.027-0.092-0.054-0.185-0.082-0.277
	c-0.606-2.067-3.463-3.704-5.438-2.213c-0.07,0.053-0.14,0.106-0.21,0.159c-1.561,1.178-2.068,2.495-1.793,4.405
	C146.081,390.995,146.202,391.264,146.317,391.532z"/>
<path d="M114.379,366.158c2.07,0,4.053-1.82,3.957-3.957c-0.096-2.144-1.739-3.957-3.957-3.957c-2.07,0-4.053,1.82-3.957,3.957
	C110.518,364.344,112.161,366.158,114.379,366.158z"/>
<path d="M82.599,351.831c-1.512,0.068-2.831,0.897-3.425,2.304c-0.779,1.847,0.006,3.55,1.533,4.68c0.09,0.067,0.18,0.133,0.27,0.2
	c0.826,0.611,2.416,0.611,3.243,0c0.09-0.066,0.18-0.133,0.27-0.2c1.356-1.003,2.203-2.486,1.722-4.232
	C85.792,353.055,84.231,351.758,82.599,351.831z"/>
<path d="M384.751,81.692c1.234,9.57,6.512,17.158,16.814,14.262c11.224-3.156,15.42-14.411,14.471-25.067
	c-0.763-8.571-5.239-21.798-15.744-22.097c-15.14-0.432-17.951,21.645-15.797,32.388C384.537,81.386,384.634,81.55,384.751,81.692z
	 M402.758,55.992c7.179,4.518,8.615,19.095,5.643,26.209c-1.616,3.867-6.165,8.33-10.672,8.309c-4.192-0.02-6.44-4.247-7.641-7.702
	c-1.02-2.934-1.557-5.948-1.639-8.949C390.186,64.101,393.654,50.262,402.758,55.992z"/>
<path d="M315.275,182.842c-2.22,0-4.347,1.952-4.245,4.245c0.103,2.3,1.865,4.245,4.245,4.245c2.22,0,4.348-1.952,4.245-4.245
	C319.417,184.787,317.655,182.842,315.275,182.842z"/>
<path d="M331.656,170.18c-0.947-1.485-2.725-2.299-4.469-1.818c-1.613,0.444-2.982,2.092-2.905,3.816
	c0.176,3.933,5.228,5.363,7.374,1.997c0.03-0.047,0.06-0.094,0.09-0.141c0.679-1.066,0.679-2.647,0-3.713
	C331.716,170.273,331.686,170.227,331.656,170.18z"/>
<path d="M338.926,176.565c0.211,0.16,0.422,0.32,0.634,0.48c-0.865-0.909-2.466-1.419-3.68-0.973
	c-0.349,0.128-0.811,0.272-1.112,0.493c-1.496,1.093-2.419,2.742-1.893,4.653c0.463,1.68,2.178,3.105,3.973,3.025
	c1.662-0.074,3.112-0.986,3.765-2.533C341.442,179.741,340.647,177.73,338.926,176.565z"/>
<path d="M353.399,155.953c-0.074,0.008-0.148,0.015-0.221,0.023c-2.365,0.243-3.817,1.677-4.063,4.063
	c-0.008,0.073-0.015,0.147-0.023,0.221c-0.173,1.68,1.202,3.326,2.647,3.935c1.526,0.645,3.537,0.381,4.704-0.89
	c1.027-1.119,1.519-2.695,1.107-4.19C357.092,157.446,355.25,155.762,353.399,155.953z"/>
<path d="M362.057,138.122c-1.68-0.359-3.418,0.627-4.074,2.181c-0.636,1.507-0.192,2.938,0.849,4.011
	c1.413,1.883,4.215,2.26,5.954,0.517c0.816-0.819,1.018-1.686,1.151-2.78C366.179,140.076,363.975,137.997,362.057,138.122z"/>
<path d="M377.896,147.415c-1.478,0.066-2.896,0.796-3.658,2.098c-0.892,1.523-0.743,3.918,0.662,5.134l0.178,0.154
	c1.719,1.487,3.906,1.496,5.636,0l0.178-0.154c1.278-1.105,1.497-3.156,0.876-4.628C381.141,148.534,379.577,147.34,377.896,147.415
	z"/>
<path d="M376.631,161.871c-1.21,0.054-2.129,0.604-2.773,1.473c-0.933,0.466-1.62,1.375-1.764,2.446
	c-0.208,1.549,0.683,2.868,2.093,3.436c1.265,0.693,2.712,0.83,4.065-0.02c1.655-1.04,2.236-2.9,1.771-4.753
	C379.662,163.016,378.137,161.804,376.631,161.871z"/>
<path d="M395.111,153.328c-2.24,0-4.387,1.97-4.283,4.283c0.104,2.32,1.882,4.283,4.283,4.283c2.24,0,4.386-1.97,4.283-4.283
	C399.29,155.29,397.512,153.328,395.111,153.328z"/>
<path d="M392.001,146.099c2.328,1.581,5.455,0.345,6.626-2.049c1.376-2.813-1.159-5.635-3.982-4.699
	c-0.047,0.003-0.09,0.005-0.161,0.009c-0.566,0.033-1.1,0.109-1.638,0.273C389.816,140.557,389.501,144.401,392.001,146.099z"/>
<path d="M412.326,129.748c-1.404,0.063-2.753,0.757-3.477,1.994c-0.996,1.701-0.491,3.446,0.63,4.88
	c0.048,0.062,0.097,0.124,0.145,0.186c1.17,1.497,4.241,1.488,5.405,0c0.048-0.062,0.096-0.124,0.145-0.186
	c1.024-1.31,1.513-2.787,0.833-4.399C415.41,130.811,413.923,129.676,412.326,129.748z"/>
<path d="M409.677,146.58c-4.823,0-4.831,7.495,0,7.495C414.5,154.075,414.508,146.58,409.677,146.58z"/>
<g>
</g>
<g>
</g>
<g>
</g>
<g>
</g>
<g>
</g>
<g>
</g>
<g>
</g>
<g>
</g>
<g>
</g>
<g>
</g>
<g>
</g>
<g>
</g>
<g>
</g>
<g>
</g>
<g>
</g>
</svg>
